<svg xmlns="http://www.w3.org/2000/svg" width="32" height="32" viewBox="0 0 32 32">
    <g fill="none">
        <path d="M0 0H32V32H0z" opacity="0.546" transform="translate(-327 -21) translate(327 21)"/>
        <g stroke-linejoin="round" stroke-width="1.5px">
            <path stroke="#000" d="M12.249 12.915V8.13a3.635 3.635 0 0 1 3.5-3.758 3.635 3.635 0 0 1 3.5 3.758v4.785" transform="translate(-327 -21) translate(326.513 21.209) translate(1.238 -.081)"/>
            <path stroke="#060708" d="M24.4 26.954H7.583a1.6 1.6 0 0 1-1.593-1.6v-.083l1.9-15.81h16.2l1.9 15.81a1.6 1.6 0 0 1-1.509 1.685z" transform="translate(-327 -21) translate(326.513 21.209) translate(.997 -.245)"/>
        </g>
    </g>
</svg>
