<svg width="3218" height="314" viewBox="0 0 3218 314" fill="none" xmlns="http://www.w3.org/2000/svg">
<path d="M1137.5 314H0C0.384598 129.274 -3.17195 34.0869 79.9999 15.1859C179.412 31.2875 162 44.5775 210.5 54.3747C259 64.1719 280.5 23.5136 350.5 23.5136C420.5 23.5136 457 64.1719 530.5 64.1719C604 64.1719 589 58.648 654 39.6789C719 20.7099 695.5 64.1719 794 64.1719C892.5 64.1719 899.712 -13.1254 1029 1.95961C1236 95.033 1167.57 144.47 1137.5 314Z" fill="#9EDBFE"/>
<path d="M2243 313.993H1105.5C1105.88 129.267 1102.33 34.0793 1185.5 15.1783C1284.91 31.2799 1267.5 44.5699 1316 54.3671C1364.5 64.1643 1386 23.506 1456 23.506C1526 23.506 1562.5 64.1644 1636 64.1644C1709.5 64.1644 1694.5 58.6404 1759.5 39.6714C1824.5 20.7023 1801 64.1644 1899.5 64.1644C1998 64.1644 2005.21 -13.133 2134.5 1.95205C2341.5 95.0254 2273.07 144.463 2243 313.993Z" fill="#9EDBFE"/>
<path d="M3182 313.993H2044.5C2044.88 129.267 2041.33 34.0793 2124.5 15.1783C2223.91 31.2799 2206.5 44.5699 2255 54.3671C2303.5 64.1643 2325 23.506 2395 23.506C2465 23.506 2501.5 64.1644 2575 64.1644C2648.5 64.1644 2633.5 58.6404 2698.5 39.6714C2763.5 20.7023 2740 64.1644 2838.5 64.1644C2937 64.1644 2944.21 -13.133 3073.5 1.95205C3280.5 95.0254 3212.07 144.463 3182 313.993Z" fill="#9EDBFE"/>
</svg>
