<svg width="3218" height="314" viewBox="0 0 3218 314" fill="none" xmlns="http://www.w3.org/2000/svg">
<path d="M1138 314H0.500122C0.88472 129.274 -2.67183 34.0869 80.5 15.1859C179.912 31.2875 162.5 44.5775 211 54.3746C259.5 64.1718 281 23.5135 351 23.5135C421 23.5135 457.5 64.1719 531 64.1719C604.5 64.1719 589.5 58.648 654.5 39.6789C719.5 20.7099 696 64.1719 794.5 64.1719C893 64.1719 900.212 -13.1254 1029.5 1.9596C1236.5 95.033 1168.07 144.47 1138 314Z" fill="#ABFAFF"/>
<path d="M2243.5 313.993H1106C1106.38 129.267 1102.83 34.0793 1186 15.1783C1285.41 31.2799 1268 44.5699 1316.5 54.3671C1365 64.1643 1386.5 23.506 1456.5 23.506C1526.5 23.506 1563 64.1644 1636.5 64.1644C1710 64.1644 1695 58.6404 1760 39.6714C1825 20.7023 1801.5 64.1644 1900 64.1644C1998.5 64.1644 2005.71 -13.133 2135 1.95205C2342 95.0254 2273.57 144.463 2243.5 313.993Z" fill="#ABFAFF"/>
<path d="M3182.5 313.993H2045C2045.38 129.267 2041.83 34.0793 2125 15.1783C2224.41 31.2799 2207 44.5699 2255.5 54.3671C2304 64.1643 2325.5 23.506 2395.5 23.506C2465.5 23.506 2502 64.1644 2575.5 64.1644C2649 64.1644 2634 58.6404 2699 39.6714C2764 20.7023 2740.5 64.1644 2839 64.1644C2937.5 64.1644 2944.71 -13.133 3074 1.95205C3281 95.0254 3212.57 144.463 3182.5 313.993Z" fill="#ABFAFF"/>
</svg>
